<svg width="369" height="47" viewBox="0 0 369 47" fill="none" xmlns="http://www.w3.org/2000/svg">
<path d="M0 12.4797H3.70275V33.7362H0V45.0501H36.7532V27.7021H25.4392V33.7362H18.308V12.4797H22.0108V1.16573H1.46002e-05L0 12.4797Z" fill="white"></path>
<path d="M21.5322 1.64424V12.0017H17.8301V34.2146H25.918V28.1804H36.2744V44.572H0.478516V34.2146H4.18164V12.0017H0.478516V1.64424H21.5322Z" stroke="black" stroke-opacity="0.7" stroke-width="0.956838"></path>
<path d="M68.2951 0.479996H53.6212L40.5931 33.8047H38.9474V45.1187H57.5297V33.8047H55.2669L56.364 30.9934H65.5523L66.6494 33.8047H64.5238V45.1187H82.9004V33.8047H81.3233L68.2951 0.479996ZM63.7695 26.3992H58.1468L60.9582 19.268L63.7695 26.3992Z" fill="white"></path>
<path d="M67.9689 0.958511L80.8781 33.979L80.9962 34.2827H82.422V44.6402H65.0021V34.2827H67.3497L67.0948 33.6304L65.9982 30.8198L65.879 30.5152H56.0372L55.9181 30.8198L54.8214 33.6304L54.5665 34.2827H57.0509V44.6402H39.4259V34.2827H40.92L41.0382 33.979L53.9474 0.958511H67.9689ZM60.5128 19.0923L57.7013 26.2241L57.4435 26.8775H64.4728L64.215 26.2241L61.4034 19.0923L60.9581 17.9634L60.5128 19.0923Z" stroke="black" stroke-opacity="0.7" stroke-width="0.956838"></path>
<path d="M85.2318 12.4797H88.9345V33.7362H85.2318V45.0501H107.174V33.7362H103.54V20.5709L117.871 45.0501H135.836V33.7362H132.202V12.4797H135.905V1.16573H113.894V12.4797H117.597V26.0564L102.991 1.16573H85.2318L85.2318 12.4797Z" fill="white"></path>
<path d="M102.717 1.64424L117.184 26.2985L118.075 27.8171V12.0017H114.372V1.64424H135.426V12.0017H131.723V34.2146H135.358V44.572H118.145L103.952 20.3288L103.062 18.8064V34.2146H106.696V44.572H85.7103V34.2146H89.4134V12.0017H85.7103V1.64424H102.717Z" stroke="black" stroke-opacity="0.7" stroke-width="0.956838"></path>
<path d="M139.402 22.4908C139.402 50.6042 165.664 48.2043 177.938 42.8559L175.88 32.3648C175.88 32.3648 170.189 34.7647 164.429 34.7647C159.15 34.7647 154.281 31.7476 154.281 22.2851C154.281 14.9481 156.955 11.314 160.727 11.314C165.184 11.314 165.938 15.4281 165.938 15.4281H177.32V4.86845C177.32 4.86845 171.629 1.52588e-05 160.658 1.52588e-05C149.344 1.52588e-05 139.402 6.51412 139.402 22.4908Z" fill="white"></path>
<path d="M160.658 0.478531C166.071 0.478579 170.172 1.6793 172.912 2.87306C174.283 3.47018 175.315 4.06615 176 4.50978C176.343 4.73144 176.598 4.91531 176.767 5.04201C176.794 5.06266 176.819 5.08208 176.842 5.09962V14.9502H166.308C166.279 14.8546 166.245 14.7438 166.2 14.6221C166.049 14.2061 165.796 13.6488 165.391 13.0899C164.57 11.9573 163.131 10.836 160.727 10.836C158.661 10.836 156.903 11.8429 155.684 13.7949C154.478 15.7256 153.803 18.5689 153.803 22.2852C153.803 27.0943 155.04 30.3514 157.031 32.4063C159.024 34.4621 161.701 35.2431 164.429 35.2432C167.369 35.2432 170.279 34.6315 172.444 34.0254C173.528 33.7217 174.431 33.4177 175.064 33.1895C175.237 33.1269 175.39 33.0673 175.521 33.0176L177.393 42.5664C171.307 45.1337 162.002 46.9253 154.195 44.7608C150.228 43.661 146.662 41.5455 144.083 38.0039C141.503 34.4604 139.88 29.4452 139.88 22.4912C139.88 14.6063 142.33 9.12122 146.113 5.60451C149.902 2.08134 155.089 0.478531 160.658 0.478531Z" stroke="black" stroke-opacity="0.7" stroke-width="0.956838"></path>
<path d="M208.314 26.4678V18.4452H199.263V12.4797H208.314V17.2109H219.628V1.16573H181.023V12.4797H184.657V33.7362H180.955V45.0501H219.628V27.7021H208.314V33.7362H199.263V26.4678H208.314Z" fill="white"></path>
<path d="M219.149 1.64424V16.7321H208.792V12.0017H198.785V18.9235H207.835V25.989H198.785V34.2146H208.792V28.1804H219.149V44.572H181.433V34.2146H185.135V12.0017H181.501V1.64424H219.149Z" stroke="black" stroke-opacity="0.7" stroke-width="0.956838"></path>
<path d="M222.713 38.3303C222.713 42.5816 226.005 45.8044 230.05 45.8044C234.233 45.8044 237.593 42.5816 237.593 38.3303C237.593 34.2161 234.233 30.7877 230.05 30.7877C226.005 30.7877 222.713 34.2161 222.713 38.3303Z" fill="white"></path>
<path d="M230.05 31.2662C233.966 31.2662 237.115 34.4779 237.115 38.3306C237.115 42.309 233.977 45.3258 230.05 45.3258C226.272 45.3257 223.192 42.3205 223.192 38.3306C223.192 34.4663 226.283 31.2662 230.05 31.2662Z" stroke="black" stroke-opacity="0.7" stroke-width="0.956838"></path>
<path d="M240.679 45.0501H262.346C268.243 45.0501 280.586 43.8844 280.586 32.6391C280.586 23.8622 270.506 22.2851 269.066 22.0794C270.163 22.0794 280.586 21.2565 280.586 12.5482C280.586 2.46853 268.106 1.1657 262.072 1.1657H240.747V12.4796H244.381V33.7362H240.679V45.0501ZM262.278 26.4678C264.746 26.4678 266.049 28.0449 266.049 30.0334C266.049 32.2962 264.746 33.7362 262.278 33.7362H258.987V26.4678H262.278ZM262.278 12.4797C264.746 12.4797 266.049 13.9196 266.049 15.4281C266.049 17.4167 264.746 18.4452 262.278 18.4452H258.987V12.4797H262.278Z" fill="white"></path>
<path d="M262.072 1.64421C265.069 1.64421 269.623 1.96998 273.411 3.52019C275.3 4.29353 276.973 5.3613 278.172 6.82097C279.364 8.27266 280.107 10.1363 280.107 12.5485C280.107 16.656 277.672 18.9019 275.033 20.1471C272.373 21.4023 269.568 21.6012 269.066 21.6012L268.999 22.5534C269.705 22.6543 272.512 23.0903 275.132 24.5622C277.736 26.0256 280.107 28.479 280.107 32.6393C280.107 35.357 279.364 37.4364 278.18 39.0378C276.993 40.6446 275.341 41.7998 273.483 42.6247C269.755 44.2797 265.278 44.5719 262.347 44.5719H241.157V34.2145H244.86V12.0016H241.225V1.64421H262.072ZM258.509 34.2145H262.278C263.605 34.2145 264.684 33.8251 265.43 33.069C266.174 32.3143 266.527 31.2554 266.527 30.0339C266.527 28.9351 266.166 27.9151 265.43 27.1686C264.691 26.4198 263.617 25.989 262.278 25.9889H258.509V34.2145ZM258.509 18.9235H262.278C263.568 18.9235 264.635 18.6565 265.388 18.0563C266.159 17.441 266.527 16.5348 266.527 15.4284C266.527 13.5929 264.943 12.0017 262.278 12.0016H258.509V18.9235Z" stroke="black" stroke-opacity="0.7" stroke-width="0.956838"></path>
<path d="M311.374 26.4678V18.4452H302.322V12.4797H311.374V17.2109H322.687V1.16573H284.083V12.4797H287.717V33.7362H284.014V45.0501H322.687V27.7021H311.374V33.7362H302.322V26.4678H311.374Z" fill="white"></path>
<path d="M322.209 1.64424V16.7321H311.852V12.0017H301.844V18.9235H310.895V25.989H301.844V34.2146H311.852V28.1804H322.209V44.572H284.493V34.2146H288.195V12.0017H284.561V1.64424H322.209Z" stroke="black" stroke-opacity="0.7" stroke-width="0.956838"></path>
<path d="M335.716 17.2109V12.4797H339.35V33.7362H335.647V45.0501H357.658V33.7362H353.955V12.4797H357.589V17.2109H368.903V1.16573H324.402V17.2109H335.716Z" fill="white"></path>
<path d="M368.425 1.64424V16.7321H358.068V12.0017H353.477V34.2146H357.179V44.572H336.125V34.2146H339.828V12.0017H335.238V16.7321H324.88V1.64424H368.425Z" stroke="black" stroke-opacity="0.7" stroke-width="0.956838"></path>
</svg>