<svg width="132" height="161" viewBox="0 0 132 161" fill="none" xmlns="http://www.w3.org/2000/svg">
<path fill-rule="evenodd" clip-rule="evenodd" d="M14.0183 0.0969978C11.2933 0.575998 11.2333 1.14799 11.2333 26.974V51.608L14.8513 47.55C23.7403 37.578 32.1623 31.072 41.3573 27.076L46.3083 24.923L46.4813 14.055C46.6233 5.17001 46.4793 2.91802 45.6913 1.71702C44.7343 0.256023 44.6283 0.246022 29.9753 0.0660224C21.8613 -0.0329776 14.6803 -0.0190022 14.0183 0.0969978Z" fill="black"></path>
<path d="M19.203 0.500992C22.0924 0.495379 25.9144 0.516943 29.9696 0.566422C37.3122 0.65662 40.9688 0.703737 42.9169 0.908218C43.8939 1.01079 44.3687 1.14807 44.6483 1.3047C44.8399 1.4121 44.9605 1.53774 45.1102 1.74904L45.2733 1.99123C45.5913 2.47586 45.8205 3.22556 45.9364 5.03615C46.0517 6.83659 46.0524 9.60108 45.9813 14.0469L45.8134 24.5928L41.1581 26.6172C31.8786 30.6499 23.4002 37.2081 14.4784 47.2168L11.7333 50.2959V26.9736C11.7333 14.0429 11.7493 7.47999 12.1014 4.08205C12.2793 2.36625 12.5355 1.56921 12.8348 1.16505C13.0954 0.813507 13.4237 0.709528 14.1044 0.589859C14.148 0.582218 14.2975 0.569287 14.5819 0.557632C14.8519 0.546572 15.2143 0.537318 15.6591 0.529312C16.5482 0.513309 17.7583 0.503799 19.203 0.500992Z" stroke="black" stroke-opacity="0.7"></path>
<path fill-rule="evenodd" clip-rule="evenodd" d="M53.5763 28.335C42.5083 30.596 34.1853 35.591 22.8603 46.765C11.1033 58.366 6.04329 65.374 2.95529 74.333C-0.534707 84.458 -0.965716 96.452 1.83328 105.551C4.11728 112.975 4.32728 113.049 5.58128 106.853C7.11129 99.3 10.2853 93.581 16.9213 86.421C19.8763 83.233 24.1473 78.242 26.4133 75.33L30.5333 70.035L33.9963 70.257C38.0603 70.518 47.8903 72.039 48.3263 72.475C48.4923 72.64 49.7293 76.347 51.0763 80.712L53.5243 88.648L51.2953 92.613C50.0703 94.794 47.8963 98.386 46.4633 100.596L43.8583 104.615L40.3433 104.198C38.4103 103.968 34.6953 103.292 32.0883 102.695L27.3493 101.61L24.6793 96.25C23.2103 93.302 21.8923 90.606 21.7503 90.259C21.6073 89.911 20.7143 90.377 19.7663 91.293C18.1333 92.871 18.0823 93.092 18.8153 95.401C21.9783 105.367 31.4173 115.898 42.2003 121.493C50.5913 125.846 55.1423 126.915 65.2673 126.907C72.7233 126.901 74.8613 126.67 78.8553 125.435C101.398 118.467 116.89 96.943 115.291 74.812C114.278 60.807 107.622 47.555 97.3113 39.016C91.6183 34.3 81.8413 29.506 75.4813 28.309C69.4803 27.18 59.1693 27.193 53.5763 28.335ZM44.1783 36.553C40.5353 38.249 34.5093 42.812 30.6643 46.786L28.2923 49.239L30.1623 57.37C31.1913 61.843 32.3603 65.705 32.7603 65.952C33.9223 66.67 48.5833 68.49 49.3793 68.014C49.7753 67.777 53.1573 65.464 56.8943 62.873L63.6873 58.162V49.427C63.6873 41.274 63.6013 40.647 62.3943 40.001C60.5343 39.005 49.2313 34.959 48.3303 34.967C47.9133 34.97 46.0453 35.685 44.1783 36.553ZM74.6673 37.119C71.4943 38.271 68.5793 39.411 68.1893 39.652C67.7173 39.944 67.4793 43.115 67.4793 49.087V58.084L72.6933 61.915C77.3303 65.323 79.0823 66.827 81.0563 67.224C82.5313 67.52 84.1303 67.198 87.1483 66.59C87.7913 66.461 88.4983 66.319 89.2823 66.166C93.8013 65.289 97.6923 64.379 97.9293 64.144C98.1663 63.909 98.6203 60.303 98.9373 56.132L99.5133 48.548L97.5583 46.431C93.8513 42.419 82.9593 34.887 81.0163 34.992C80.6963 35.009 77.8393 35.967 74.6673 37.119ZM89.8093 69.722C83.4823 70.989 81.3833 71.84 81.3833 73.137C81.3833 73.602 80.3793 77.294 79.1523 81.342L76.9213 88.7L81.8383 95.931C85.2823 100.997 87.1333 103.174 88.0183 103.2C88.7143 103.22 92.5313 102.45 96.5033 101.489L103.724 99.74L105.493 95.838C107.5 91.413 109.825 83.49 109.816 81.108C109.812 79.998 108.262 77.838 104.708 73.985C101.929 70.974 100.588 69.43 98.9113 68.845C97.1793 68.241 95.0903 68.661 90.6903 69.545C90.4063 69.602 90.1133 69.661 89.8093 69.722ZM57.6133 91.194C56.8793 91.491 56.1053 92.186 55.8923 92.74C55.6803 93.295 53.6403 96.722 51.3573 100.356L47.2093 106.965L48.5393 109.573C49.7913 112.025 54.6783 120.256 55.2523 120.879C56.0103 121.699 64.7783 122.042 70.3233 121.467C75.0713 120.976 76.8003 120.55 77.2753 119.756C77.6223 119.174 79.2363 115.884 80.8613 112.445C83.7963 106.234 83.8073 106.183 82.6683 104.546C82.0373 103.639 79.7543 100.126 77.5953 96.736L73.6693 90.575L66.3083 90.614C62.2603 90.637 58.3473 90.898 57.6133 91.194Z" fill="black"></path>
<path d="M53.6768 28.8248C59.2021 27.6967 69.447 27.6826 75.3887 28.8004C78.5076 29.3874 82.4968 30.8648 86.4258 32.7916C90.3522 34.7172 94.1841 37.0748 96.9922 39.401C107.193 47.8484 113.789 60.9718 114.793 74.8483C116.374 96.7266 101.049 118.052 78.708 124.958C74.7852 126.171 72.7053 126.401 65.2666 126.407C60.2197 126.411 56.5953 126.146 53.1982 125.348C49.8031 124.551 46.6087 123.217 42.4307 121.049C31.7447 115.505 22.4084 105.069 19.292 95.2496C19.1078 94.6695 18.9825 94.2488 18.916 93.9108C18.8506 93.578 18.8499 93.3611 18.8906 93.1852C18.9308 93.012 19.0214 92.8316 19.2158 92.5885C19.4158 92.3385 19.7028 92.0496 20.1133 91.6529C20.5667 91.2149 20.9885 90.9035 21.291 90.7457C21.3325 90.7241 21.37 90.7086 21.4014 90.6949C21.7789 91.5063 22.9536 93.9089 24.2314 96.4733L26.9014 101.833L27.0068 102.045L27.2373 102.097L31.9766 103.182C34.5951 103.782 38.3284 104.462 40.2842 104.695L43.7998 105.112L44.1084 105.148L44.2783 104.887L46.8828 100.868C48.1415 98.9266 49.9674 95.927 51.2285 93.7399L51.7314 92.858L53.96 88.8932L54.0654 88.7057L54.002 88.5006L51.5537 80.565C50.8794 78.3799 50.2323 76.3575 49.7324 74.86C49.4828 74.112 49.2691 73.4918 49.1064 73.0465C49.0254 72.8247 48.955 72.6412 48.8984 72.5055C48.8705 72.4383 48.8429 72.3763 48.8174 72.3248C48.8047 72.2993 48.7895 72.27 48.7725 72.2418C48.7661 72.2313 48.7549 72.2135 48.7393 72.192L48.6787 72.1207C48.6071 72.0495 48.5268 72.0056 48.4814 71.983C48.4268 71.9559 48.367 71.9319 48.3086 71.9108C48.1913 71.8682 48.0444 71.8254 47.8789 71.7818C47.546 71.6942 47.099 71.5955 46.5723 71.4908C45.5163 71.2809 44.1122 71.0405 42.5986 70.8063C39.9529 70.3968 36.9486 70.0025 34.8623 69.8219L34.0283 69.7584L30.5654 69.5358L30.3008 69.5191L30.1387 69.7281L26.0186 75.0231C23.7628 77.9219 19.5015 82.9015 16.5547 86.0807C9.87276 93.2902 6.64334 99.0895 5.09082 106.754C4.77595 108.309 4.53333 109.44 4.31055 110.16C4.24786 110.362 4.18965 110.517 4.13965 110.632C4.13593 110.626 4.13175 110.62 4.12793 110.613C4.00117 110.389 3.85136 110.051 3.67383 109.581C3.31997 108.644 2.88353 107.263 2.31152 105.404C-0.452493 96.4186 -0.0322514 84.5336 3.42773 74.4957C6.47842 65.645 11.4748 58.7021 23.2119 47.1207C34.4948 35.9883 42.7352 31.06 53.6768 28.8248ZM73.667 90.0748L66.3057 90.1139C64.2729 90.1254 62.272 90.1965 60.6846 90.3024C59.8914 90.3553 59.1966 90.4179 58.6504 90.4859C58.1278 90.5511 57.6806 90.6278 57.4268 90.7301H57.4258C56.9961 90.9039 56.5708 91.1868 56.2236 91.4986C55.8839 91.8038 55.5725 92.1788 55.4258 92.5602L55.4248 92.5611C55.3879 92.6578 55.2425 92.9406 54.9795 93.4078C54.7256 93.8589 54.3815 94.4489 53.9717 95.1373C53.357 96.1696 52.5971 97.4193 51.7744 98.7447L50.9336 100.09L46.7861 106.699L46.6348 106.939L46.7637 107.192L48.0938 109.8C48.7281 111.043 50.2706 113.727 51.7197 116.168C52.4457 117.39 53.152 118.557 53.7129 119.459C53.9931 119.909 54.2381 120.296 54.4326 120.59C54.6167 120.869 54.7799 121.104 54.8848 121.217V121.218C55.0009 121.344 55.1533 121.427 55.2832 121.484C55.4222 121.545 55.5849 121.599 55.7607 121.646C56.1127 121.741 56.5621 121.823 57.0791 121.893C58.1164 122.035 59.4752 122.137 60.9736 122.196C63.9701 122.313 67.5729 122.255 70.375 121.964C72.7492 121.719 74.3994 121.487 75.5215 121.211C76.6098 120.943 77.3521 120.601 77.7041 120.012H77.7051C78.0678 119.404 79.6945 116.085 81.3135 112.659C82.046 111.109 82.6005 109.933 83 109.021C83.3971 108.115 83.6553 107.438 83.7803 106.892C83.909 106.329 83.9024 105.877 83.752 105.436C83.6116 105.025 83.3535 104.655 83.0791 104.26C82.6111 103.588 81.213 101.449 79.6318 98.9899L78.0166 96.4674L74.0908 90.3063L73.9424 90.0738L73.667 90.0748ZM99.0762 68.3727C98.1107 68.036 97.0709 67.9964 95.7471 68.1402C94.4306 68.2833 92.7823 68.6142 90.5918 69.0543C90.3058 69.1117 90.0165 69.1707 89.7109 69.232C86.5496 69.8651 84.4005 70.4017 83.0361 70.9547C82.3548 71.2309 81.827 71.5272 81.4648 71.8727C81.0873 72.2329 80.8838 72.6547 80.8838 73.1373C80.8838 73.1302 80.8837 73.1439 80.877 73.191C80.8709 73.2334 80.8606 73.2902 80.8467 73.3619C80.8187 73.5055 80.7765 73.6964 80.7207 73.9303C80.6091 74.3977 80.4466 75.0234 80.2451 75.7643C79.8422 77.2458 79.2862 79.1765 78.6738 81.1969L76.4424 88.5553L76.373 88.7838L76.5078 88.9811L81.4248 96.2125C83.1484 98.7479 84.4848 100.577 85.5068 101.779C86.017 102.379 86.4618 102.838 86.8477 103.153C87.1682 103.414 87.5092 103.628 87.8555 103.685L88.0039 103.7C88.2345 103.706 88.6526 103.652 89.1592 103.57C89.6854 103.484 90.3589 103.358 91.1309 103.203C92.6758 102.891 94.6299 102.457 96.6211 101.975L103.842 100.226L104.079 100.169L104.18 99.9469L105.948 96.0445C106.965 93.8035 108.056 90.6922 108.891 87.8473C109.308 86.4235 109.665 85.0597 109.916 83.8981C110.165 82.7481 110.319 81.7602 110.316 81.1061C110.315 80.7217 110.182 80.3006 109.967 79.8522C109.748 79.3975 109.425 78.8766 109 78.2838C108.15 77.0981 106.857 75.5767 105.076 73.6461C103.695 72.15 102.648 70.9918 101.738 70.1402C100.823 69.2836 100.009 68.6982 99.0762 68.3727ZM48.3262 34.4674C48.1372 34.4689 47.8738 34.538 47.6211 34.6158C47.3437 34.7013 47.0011 34.8224 46.6191 34.9684C45.8544 35.2607 44.9101 35.6611 43.9678 36.0992H43.9668C40.2517 37.8289 34.1773 42.4356 30.3047 46.4381L27.9326 48.8912L27.7441 49.0865L27.8047 49.3512L29.6748 57.482C30.1912 59.7267 30.7439 61.8216 31.2188 63.3902C31.4557 64.1731 31.6756 64.833 31.8643 65.317C31.9581 65.5577 32.0483 65.7659 32.1328 65.9274C32.1749 66.0077 32.2213 66.0862 32.2705 66.1549C32.3129 66.214 32.3868 66.3093 32.4971 66.3775C32.6284 66.4587 32.8076 66.5231 32.9824 66.5768C33.17 66.6344 33.4011 66.6933 33.6641 66.7535C34.1908 66.8741 34.8722 67.0045 35.6514 67.1373C37.2113 67.4031 39.1857 67.6841 41.1455 67.9274C43.1052 68.1706 45.0573 68.3761 46.5723 68.4918C47.3286 68.5496 47.9834 68.5856 48.4785 68.5914C48.725 68.5943 48.9421 68.5903 49.1162 68.5758C49.2028 68.5685 49.2878 68.5575 49.3652 68.5416C49.4328 68.5277 49.5376 68.5017 49.6357 68.443C50.0505 68.1947 53.4536 65.8666 57.1787 63.2838H57.1797L63.9727 58.5729L64.1875 58.4234V49.4274C64.1875 45.3692 64.1675 43.13 63.9893 41.8307C63.8995 41.1764 63.7625 40.6975 63.5264 40.3297C63.342 40.0424 63.1159 39.8523 62.875 39.7008L62.6299 39.5602C61.6588 39.0403 58.3258 37.7656 55.1709 36.6363C53.5828 36.0679 52.0225 35.5302 50.8008 35.1344C50.1904 34.9367 49.6602 34.7732 49.252 34.6588C49.0483 34.6017 48.87 34.5553 48.7246 34.5231C48.5947 34.4942 48.4464 34.4664 48.3262 34.4674ZM80.9893 34.4928C80.8897 34.4982 80.7603 34.5298 80.6553 34.5572C80.5313 34.5897 80.3735 34.6351 80.1895 34.691C79.8207 34.8032 79.3291 34.9625 78.752 35.1559C77.5966 35.5431 76.0857 36.0721 74.4971 36.649C72.9074 37.2262 71.3807 37.8005 70.2021 38.2613C69.6134 38.4916 69.1096 38.6951 68.7266 38.8561C68.3619 39.0093 68.0649 39.1409 67.9268 39.2262L67.9258 39.2272C67.7248 39.3518 67.6196 39.5623 67.5605 39.7066C67.4922 39.8736 67.4369 40.0791 67.3896 40.3092C67.2946 40.7718 67.219 41.4067 67.1592 42.2018C67.0393 43.7964 66.9795 46.0971 66.9795 49.0865V58.3375L67.1836 58.4869L72.3975 62.318C74.7013 64.0112 76.3182 65.2537 77.5938 66.1129C78.8761 66.9766 79.8738 67.4964 80.958 67.7145C82.5548 68.0349 84.2713 67.6802 87.2471 67.0807L89.3779 66.6568C91.6418 66.2175 93.7505 65.7692 95.3252 65.401C96.1117 65.2171 96.7699 65.0516 97.249 64.9166C97.4877 64.8494 97.6894 64.7876 97.8428 64.733C97.9188 64.7059 97.9914 64.6779 98.0537 64.649C98.0984 64.6283 98.199 64.5802 98.2812 64.4986C98.373 64.4075 98.42 64.2974 98.4395 64.2496C98.4661 64.1841 98.4893 64.1108 98.5098 64.0367C98.5511 63.8873 98.5923 63.6942 98.6338 63.4703C98.7172 63.0203 98.8076 62.4063 98.8994 61.6764C99.0834 60.2141 99.2766 58.2611 99.4355 56.1695L100.012 48.5856L100.028 48.3688L99.8809 48.2086L97.9258 46.0914C96.0336 44.0436 92.3463 41.1326 88.9102 38.7565C87.1876 37.5653 85.5135 36.4985 84.1426 35.734C83.4581 35.3523 82.8399 35.0408 82.3242 34.8268C81.8958 34.649 81.4765 34.511 81.1318 34.4928H80.9893Z" stroke="black" stroke-opacity="0.7"></path>
<path fill-rule="evenodd" clip-rule="evenodd" d="M13.9173 133.775C8.40628 123.182 7.93029 112.076 12.5283 101.388C13.2923 99.612 14.1093 98.158 14.3443 98.158C14.5793 98.158 15.1243 99.136 15.5563 100.329C16.9303 104.128 22.6403 112.225 26.9613 116.501C31.9773 121.467 37.0363 124.88 43.5643 127.702C52.7623 131.678 54.3593 131.805 93.8203 131.678C128.955 131.567 129.338 131.579 130.632 132.873C131.863 134.103 131.941 134.89 131.941 146.091C131.941 157.351 131.869 158.065 130.626 159.19C130.515 159.291 130.414 159.384 130.309 159.471C128.93 160.603 126.598 160.574 86.1503 160.077L84.2263 160.053C53.2143 159.671 51.0793 159.572 46.3083 158.28C31.9323 154.39 19.9103 145.295 13.9173 133.775Z" fill="black"></path>
<path d="M14.4397 99.0398C14.6433 99.4047 14.8772 99.9216 15.0862 100.499C15.7975 102.466 17.6027 105.486 19.7454 108.524C21.8951 111.573 24.4215 114.691 26.6096 116.856C31.6701 121.866 36.781 125.314 43.3655 128.161C47.9974 130.163 50.7515 131.209 57.304 131.727C63.8115 132.242 74.1029 132.241 93.8215 132.178C111.396 132.122 120.263 132.098 124.901 132.249C127.228 132.324 128.449 132.443 129.16 132.611C129.507 132.693 129.713 132.782 129.86 132.872C130.008 132.962 130.12 133.067 130.279 133.226C130.565 133.513 130.752 133.741 130.897 134.079C131.048 134.432 131.166 134.936 131.251 135.792C131.422 137.511 131.442 140.477 131.442 146.091C131.442 151.735 131.422 154.696 131.252 156.391C131.167 157.235 131.049 157.718 130.901 158.046C130.76 158.356 130.58 158.558 130.291 158.819L130.289 158.82L129.99 159.086C129.739 159.292 129.43 159.478 128.446 159.618C127.437 159.762 125.781 159.848 122.874 159.885C118.522 159.939 111.423 159.878 99.6116 159.74L86.1565 159.577L84.2327 159.554C53.1789 159.171 51.1312 159.068 46.4387 157.798C32.176 153.938 20.2794 144.922 14.3606 133.545C8.91681 123.081 8.45072 112.132 12.9875 101.586C13.3644 100.71 13.7521 99.9188 14.0706 99.3523C14.1739 99.1686 14.2689 99.014 14.3499 98.8895C14.3776 98.9351 14.4088 98.9845 14.4397 99.0398Z" stroke="black" stroke-opacity="0.7"></path>
</svg>