<svg width="132" height="161" viewBox="0 0 132 161" fill="none" xmlns="http://www.w3.org/2000/svg">
<path fill-rule="evenodd" clip-rule="evenodd" d="M14.0183 0.0969825C11.2933 0.575983 11.2333 1.14798 11.2333 26.974V51.608L14.8513 47.55C23.7403 37.578 32.1623 31.072 41.3573 27.076L46.3083 24.923L46.4813 14.055C46.6233 5.17 46.4793 2.91801 45.6913 1.71701C44.7343 0.256008 44.6283 0.246007 29.9753 0.0660072C21.8613 -0.0329928 14.6803 -0.0190175 14.0183 0.0969825Z" fill="black"/>
<path fill-rule="evenodd" clip-rule="evenodd" d="M53.5763 28.335C42.5083 30.596 34.1853 35.591 22.8603 46.765C11.1033 58.366 6.04329 65.374 2.95529 74.333C-0.534707 84.458 -0.965716 96.452 1.83328 105.551C4.11728 112.975 4.32729 113.049 5.58128 106.853C7.11128 99.3 10.2853 93.581 16.9213 86.421C19.8763 83.233 24.1473 78.242 26.4133 75.33L30.5333 70.035L33.9963 70.257C38.0603 70.518 47.8903 72.039 48.3263 72.475C48.4923 72.64 49.7293 76.347 51.0763 80.712L53.5243 88.648L51.2953 92.613C50.0703 94.794 47.8963 98.386 46.4633 100.596L43.8583 104.615L40.3433 104.198C38.4103 103.968 34.6953 103.292 32.0883 102.695L27.3493 101.61L24.6793 96.25C23.2103 93.302 21.8923 90.606 21.7503 90.259C21.6073 89.911 20.7143 90.377 19.7663 91.293C18.1333 92.871 18.0823 93.092 18.8153 95.401C21.9783 105.367 31.4173 115.898 42.2003 121.493C50.5913 125.846 55.1423 126.915 65.2673 126.907C72.7233 126.901 74.8613 126.67 78.8553 125.435C101.398 118.467 116.89 96.943 115.291 74.812C114.278 60.807 107.622 47.555 97.3113 39.016C91.6183 34.3 81.8413 29.506 75.4813 28.309C69.4803 27.18 59.1693 27.193 53.5763 28.335ZM44.1783 36.553C40.5353 38.249 34.5093 42.812 30.6643 46.786L28.2923 49.239L30.1623 57.37C31.1913 61.843 32.3603 65.705 32.7603 65.952C33.9223 66.67 48.5833 68.49 49.3793 68.014C49.7753 67.777 53.1573 65.464 56.8943 62.873L63.6873 58.162V49.427C63.6873 41.274 63.6013 40.647 62.3943 40.001C60.5343 39.005 49.2313 34.959 48.3303 34.967C47.9133 34.97 46.0453 35.685 44.1783 36.553ZM74.6673 37.119C71.4943 38.271 68.5793 39.411 68.1893 39.652C67.7173 39.944 67.4793 43.115 67.4793 49.087V58.084L72.6933 61.915C77.3303 65.323 79.0823 66.827 81.0563 67.224C82.5313 67.52 84.1303 67.198 87.1483 66.59C87.7913 66.461 88.4983 66.319 89.2823 66.166C93.8013 65.289 97.6923 64.379 97.9293 64.144C98.1663 63.909 98.6203 60.303 98.9373 56.132L99.5133 48.548L97.5583 46.431C93.8513 42.419 82.9593 34.887 81.0163 34.992C80.6963 35.009 77.8393 35.967 74.6673 37.119ZM89.8093 69.722C83.4823 70.989 81.3833 71.84 81.3833 73.137C81.3833 73.602 80.3793 77.294 79.1523 81.342L76.9213 88.7L81.8383 95.931C85.2823 100.997 87.1333 103.174 88.0183 103.2C88.7143 103.22 92.5313 102.45 96.5033 101.489L103.724 99.74L105.493 95.838C107.5 91.413 109.825 83.49 109.816 81.108C109.812 79.998 108.262 77.838 104.708 73.985C101.929 70.974 100.588 69.43 98.9113 68.845C97.1793 68.241 95.0903 68.661 90.6903 69.545C90.4063 69.602 90.1133 69.661 89.8093 69.722ZM57.6133 91.194C56.8793 91.491 56.1053 92.186 55.8923 92.74C55.6803 93.295 53.6403 96.722 51.3573 100.356L47.2093 106.965L48.5393 109.573C49.7913 112.025 54.6783 120.256 55.2523 120.879C56.0103 121.699 64.7783 122.042 70.3233 121.467C75.0713 120.976 76.8003 120.55 77.2753 119.756C77.6223 119.174 79.2363 115.884 80.8613 112.445C83.7963 106.234 83.8073 106.183 82.6683 104.546C82.0373 103.639 79.7543 100.126 77.5953 96.736L73.6693 90.575L66.3083 90.614C62.2603 90.637 58.3473 90.898 57.6133 91.194Z" fill="black"/>
<path fill-rule="evenodd" clip-rule="evenodd" d="M13.9173 133.775C8.40628 123.182 7.93029 112.076 12.5283 101.388C13.2923 99.612 14.1093 98.158 14.3443 98.158C14.5793 98.158 15.1243 99.136 15.5563 100.329C16.9303 104.128 22.6403 112.225 26.9613 116.501C31.9773 121.467 37.0363 124.88 43.5643 127.702C52.7623 131.678 54.3593 131.805 93.8203 131.678C128.955 131.567 129.338 131.579 130.632 132.873C131.863 134.103 131.941 134.89 131.941 146.091C131.941 157.351 131.869 158.065 130.626 159.19C130.515 159.291 130.414 159.384 130.309 159.471C128.93 160.603 126.598 160.574 86.1503 160.077L84.2263 160.053C53.2143 159.671 51.0793 159.572 46.3083 158.28C31.9323 154.39 19.9103 145.295 13.9173 133.775Z" fill="black"/>
</svg>
