<svg width="132" height="160" viewBox="0 0 132 160" fill="none" xmlns="http://www.w3.org/2000/svg">
<path fill-rule="evenodd" clip-rule="evenodd" d="M13.9829 0.0967493C11.2648 0.574541 11.205 1.1451 11.205 26.906V51.4778L14.8138 47.4301C23.6804 37.4832 32.0812 30.9936 41.253 27.0077L46.1915 24.8602L46.3641 14.0196C46.5057 5.15697 46.3621 2.91066 45.5761 1.71269C44.6215 0.255374 44.5157 0.245398 29.8997 0.0658521C21.8062 -0.0328982 14.6433 -0.0189581 13.9829 0.0967493Z" fill="#75787B"/>
<path fill-rule="evenodd" clip-rule="evenodd" d="M53.4412 28.2635C42.4011 30.5188 34.0991 35.5012 22.8026 46.6471C11.0753 58.2188 6.02805 65.2091 2.94784 74.1455C-0.533358 84.245 -0.96328 96.2087 1.82866 105.285C4.1069 112.69 4.31637 112.764 5.56721 106.584C7.09335 99.0496 10.2593 93.345 16.8786 86.2031C19.8261 83.0231 24.0864 78.0447 26.3467 75.14L30.4563 69.8584L33.9105 70.0798C37.9643 70.3402 47.7695 71.8573 48.2044 72.2922C48.37 72.4568 49.6038 76.1545 50.9474 80.5085L53.3893 88.4244L51.1659 92.3794C49.944 94.5549 47.7755 98.1379 46.3461 100.342L43.7477 104.351L40.2415 103.935C38.3134 103.706 34.6078 103.031 32.0074 102.436L27.2803 101.354L24.617 96.0073C23.1517 93.0667 21.8371 90.3775 21.6954 90.0314C21.5528 89.6842 20.662 90.1491 19.7164 91.0628C18.0875 92.6368 18.0367 92.8572 18.7678 95.1604C21.9229 105.101 31.338 115.606 42.0938 121.187C50.4637 125.529 55.0032 126.595 65.1027 126.587C72.5399 126.581 74.6725 126.351 78.6564 125.119C101.143 118.168 116.595 96.6985 115.001 74.6233C113.99 60.6537 107.351 47.4351 97.0658 38.9176C91.3872 34.2135 81.6349 29.4316 75.2909 28.2376C69.3051 27.1115 59.0201 27.1244 53.4412 28.2635ZM44.0669 36.4608C40.4331 38.1525 34.4223 42.704 30.5869 46.668L28.2209 49.1148L30.0862 57.2253C31.1126 61.687 32.2787 65.5393 32.6777 65.7857C33.8367 66.5018 48.4607 68.3173 49.2547 67.8425C49.6497 67.6061 53.0232 65.2989 56.7508 62.7144L63.5267 58.0153V49.3023C63.5267 41.1699 63.4409 40.5445 62.2369 39.9001C60.3816 38.9066 49.1071 34.8708 48.2084 34.8788C47.7925 34.8818 45.9292 35.595 44.0669 36.4608ZM74.479 37.0254C71.314 38.1745 68.4063 39.3116 68.0173 39.552C67.5465 39.8433 67.3091 43.0063 67.3091 48.9632V57.9375L72.51 61.7588C77.1353 65.1582 78.8829 66.6585 80.8519 67.0545C82.3232 67.3497 83.9181 67.0285 86.9285 66.4221C87.5699 66.2934 88.2751 66.1517 89.0571 65.9991C93.5647 65.1243 97.4459 64.2166 97.6823 63.9822C97.9187 63.7478 98.3716 60.1509 98.6878 55.9904L99.2623 48.4255L97.3122 46.3139C93.6146 42.312 82.7501 34.799 80.812 34.9037C80.4928 34.9207 77.643 35.8763 74.479 37.0254ZM89.5828 69.5462C83.2717 70.81 81.178 71.6588 81.178 72.9525C81.178 73.4164 80.1766 77.0991 78.9527 81.1369L76.7273 88.4763L81.6319 95.689C85.0672 100.742 86.9135 102.914 87.7963 102.94C88.4905 102.96 92.2979 102.192 96.2599 101.233L103.463 99.4884L105.227 95.5963C107.229 91.1824 109.548 83.2794 109.539 80.9034C109.535 79.7962 107.989 77.6417 104.444 73.7984C101.672 70.795 100.335 69.2549 98.6618 68.6714C96.9342 68.0689 94.8504 68.4878 90.4615 69.3696C90.1783 69.4265 89.886 69.4853 89.5828 69.5462ZM57.468 90.964C56.7358 91.2603 55.9638 91.9535 55.7513 92.5061C55.5398 93.0597 53.505 96.4781 51.2277 100.103L47.0902 106.695L48.4169 109.297C49.6657 111.742 54.5404 119.953 55.1129 120.574C55.869 121.392 64.6149 121.734 70.1459 121.161C74.8819 120.671 76.6066 120.246 77.0804 119.454C77.4265 118.873 79.0364 115.592 80.6573 112.161C83.5849 105.966 83.5959 105.915 82.4598 104.282C81.8304 103.378 79.5531 99.8735 77.3996 96.492L73.4835 90.3466L66.1411 90.3855C62.1033 90.4084 58.2001 90.6688 57.468 90.964Z" fill="#C1C6C8"/>
<path fill-rule="evenodd" clip-rule="evenodd" d="M13.8822 133.438C8.38511 122.871 7.91031 111.793 12.4967 101.132C13.2588 99.3608 14.0737 97.9104 14.3081 97.9104C14.5425 97.9104 15.0862 98.886 15.5171 100.076C16.8876 103.865 22.5832 111.942 26.8933 116.207C31.8967 121.161 36.9429 124.565 43.4544 127.38C52.6292 131.346 54.2222 131.473 93.5837 131.346C128.63 131.235 129.012 131.247 130.303 132.538C131.531 133.765 131.609 134.55 131.609 145.723C131.609 156.954 131.537 157.666 130.297 158.788C130.186 158.889 130.085 158.982 129.981 159.069C128.605 160.198 126.279 160.169 85.933 159.673L84.0139 159.649C53.0801 159.268 50.9505 159.17 46.1915 157.881C31.8518 154.001 19.8601 144.929 13.8822 133.438Z" fill="#75787B"/>
</svg>
