<svg width="369" height="47" viewBox="0 0 369 47" fill="none" xmlns="http://www.w3.org/2000/svg">
<path d="M0 12.4797H3.70275V33.7362H0V45.0501H36.7532V27.7021H25.4392V33.7362H18.308V12.4797H22.0108V1.16573H1.46002e-05L0 12.4797Z" fill="white"/>
<path d="M68.2951 0.479996H53.6212L40.5931 33.8047H38.9474V45.1187H57.5297V33.8047H55.2669L56.364 30.9934H65.5523L66.6494 33.8047H64.5238V45.1187H82.9004V33.8047H81.3233L68.2951 0.479996ZM63.7695 26.3992H58.1468L60.9582 19.268L63.7695 26.3992Z" fill="white"/>
<path d="M85.2318 12.4797H88.9345V33.7362H85.2318V45.0501H107.174V33.7362H103.54V20.5709L117.871 45.0501H135.836V33.7362H132.202V12.4797H135.905V1.16573H113.894V12.4797H117.597V26.0564L102.991 1.16573H85.2318L85.2318 12.4797Z" fill="white"/>
<path d="M139.402 22.4908C139.402 50.6042 165.664 48.2043 177.938 42.8559L175.88 32.3648C175.88 32.3648 170.189 34.7647 164.429 34.7647C159.15 34.7647 154.281 31.7476 154.281 22.2851C154.281 14.9481 156.955 11.314 160.727 11.314C165.184 11.314 165.938 15.4281 165.938 15.4281H177.32V4.86845C177.32 4.86845 171.629 1.52588e-05 160.658 1.52588e-05C149.344 1.52588e-05 139.402 6.51412 139.402 22.4908Z" fill="white"/>
<path d="M208.314 26.4678V18.4452H199.263V12.4797H208.314V17.2109H219.628V1.16573H181.023V12.4797H184.657V33.7362H180.955V45.0501H219.628V27.7021H208.314V33.7362H199.263V26.4678H208.314Z" fill="white"/>
<path d="M222.713 38.3303C222.713 42.5816 226.005 45.8044 230.05 45.8044C234.233 45.8044 237.593 42.5816 237.593 38.3303C237.593 34.2161 234.233 30.7877 230.05 30.7877C226.005 30.7877 222.713 34.2161 222.713 38.3303Z" fill="white"/>
<path d="M240.679 45.0501H262.346C268.243 45.0501 280.586 43.8844 280.586 32.6391C280.586 23.8622 270.506 22.2851 269.066 22.0794C270.163 22.0794 280.586 21.2565 280.586 12.5482C280.586 2.46853 268.106 1.1657 262.072 1.1657H240.747V12.4796H244.381V33.7362H240.679V45.0501ZM262.278 26.4678C264.746 26.4678 266.049 28.0449 266.049 30.0334C266.049 32.2962 264.746 33.7362 262.278 33.7362H258.987V26.4678H262.278ZM262.278 12.4797C264.746 12.4797 266.049 13.9196 266.049 15.4281C266.049 17.4167 264.746 18.4452 262.278 18.4452H258.987V12.4797H262.278Z" fill="white"/>
<path d="M311.374 26.4678V18.4452H302.322V12.4797H311.374V17.2109H322.687V1.16573H284.083V12.4797H287.717V33.7362H284.014V45.0501H322.687V27.7021H311.374V33.7362H302.322V26.4678H311.374Z" fill="white"/>
<path d="M335.716 17.2109V12.4797H339.35V33.7362H335.647V45.0501H357.658V33.7362H353.955V12.4797H357.589V17.2109H368.903V1.16573H324.402V17.2109H335.716Z" fill="white"/>
</svg>
